PathFileType	4	(X/Y/Z)	 0.11m3min.trc
DataRate	CameraRate	NumFrames	NumMarkers	Units	OrigDataRate	OrigDataStartFrame	OrigNumFrames
200	200	8	35	m	200	251	1000
Frame#	Time	C7			LSH			RSH			MAN			RASI			LASI			HIPR			HIPL			RPSI			LPSI			COX			RTHI1			RTHI2			RTHI3			RTHI4			RSHA1			RSHA2			RSHA3			RSHA4			RHEEL			RMET5			RMET1			RTOE			LTHI1			LTHI2			LTHI3			LTHI4			LSHA1			LSHA2			LSHA3			LSHA4			LHEEL			LMET5			LMET1			LTOE			
		X1	Y1	Z1	X2	Y2	Z2	X3	Y3	Z3	X4	Y4	Z4	X5	Y5	Z5	X6	Y6	Z6	X7	Y7	Z7	X8	Y8	Z8	X9	Y9	Z9	X10	Y10	Z10	X11	Y11	Z11	X12	Y12	Z12	X13	Y13	Z13	X14	Y14	Z14	X15	Y15	Z15	X16	Y16	Z16	X17	Y17	Z17	X18	Y18	Z18	X19	Y19	Z19	X20	Y20	Z20	X21	Y21	Z21	X22	Y22	Z22	X23	Y23	Z23	X24	Y24	Z24	X25	Y25	Z25	X26	Y26	Z26	X27	Y27	Z27	X28	Y28	Z28	X29	Y29	Z29	X30	Y30	Z30	X31	Y31	Z31	X32	Y32	Z32	X33	Y33	Z33	X34	Y34	Z34	X35	Y35	Z35	
251	1.2550	-0.351115	1.710352	-0.515313	-0.299137	1.711203	-0.741742	-0.274407	1.706323	-0.313092	-0.194557	1.675999	-0.529283	-0.166215	1.190468	-0.411808	-0.175310	1.193544	-0.640725	-0.229724	1.274353	-0.362608	-0.232703	1.268667	-0.682004	-0.346711	1.243886	-0.462875	-0.349200	1.246083	-0.572070	-0.354557	1.248944	-0.514349	-0.269217	0.967880	-0.328482	-0.258518	0.910486	-0.317342	-0.194244	0.921050	-0.313655	-0.197794	0.981339	-0.325064	-0.342748	0.500367	-0.300752	-0.357300	0.460096	-0.304677	-0.298369	0.446109	-0.303229	-0.288451	0.484821	-0.304048	-0.430471	0.168140	-0.368831	-0.273517	0.068332	-0.313927	-0.235326	0.080679	-0.389516	-0.207567	0.071712	-0.384262	-0.254163	0.947174	-0.735985	-0.241114	0.887472	-0.743470	-0.177131	0.895391	-0.741899	-0.181222	0.955371	-0.734738	-0.362496	0.460182	-0.739793	-0.374600	0.421870	-0.735454	-0.314638	0.408210	-0.747136	-0.310061	0.451737	-0.750202	-0.452954	0.178730	-0.680134	-0.314331	0.064420	-0.749922	-0.264707	0.070400	-0.679760	-0.237446	0.061899	-0.691445	
252	1.2600	-0.350989	1.708705	-0.515218	-0.298941	1.708920	-0.741820	-0.274360	1.703938	-0.312779	-0.194622	1.673802	-0.529080	-0.166863	1.188626	-0.411745	-0.175845	1.191801	-0.640666	-0.230685	1.272238	-0.362455	-0.233483	1.266747	-0.682063	-0.347368	1.241857	-0.462944	-0.349712	1.244203	-0.572095	-0.355217	1.246971	-0.514386	-0.269101	0.965578	-0.328026	-0.258095	0.908249	-0.316960	-0.193870	0.919152	-0.313417	-0.197752	0.979441	-0.324740	-0.341920	0.499005	-0.300853	-0.356782	0.458834	-0.304829	-0.297907	0.444438	-0.303444	-0.287730	0.483121	-0.304241	-0.432144	0.167591	-0.369339	-0.275987	0.066920	-0.314123	-0.237868	0.078312	-0.389945	-0.210165	0.069092	-0.384662	-0.253384	0.945483	-0.736272	-0.239945	0.885877	-0.743756	-0.176019	0.894182	-0.741947	-0.180505	0.954133	-0.734762	-0.362606	0.459343	-0.739365	-0.375090	0.421175	-0.734892	-0.315288	0.406859	-0.746641	-0.310281	0.450348	-0.749852	-0.455816	0.178546	-0.678892	-0.317533	0.063982	-0.748854	-0.268004	0.069412	-0.678522	-0.240694	0.060821	-0.690186	
253	1.2650	-0.350818	1.706836	-0.515127	-0.298708	1.706385	-0.741896	-0.274299	1.701295	-0.312471	-0.194649	1.671362	-0.528874	-0.167532	1.186503	-0.411687	-0.176417	1.189790	-0.640613	-0.231635	1.269878	-0.362295	-0.234282	1.264534	-0.682144	-0.348032	1.239596	-0.463005	-0.350246	1.242097	-0.572121	-0.355887	1.244778	-0.514420	-0.269031	0.963055	-0.327621	-0.257715	0.905773	-0.316606	-0.193527	0.917007	-0.313222	-0.197745	0.977287	-0.324483	-0.341090	0.497447	-0.300969	-0.356225	0.457319	-0.304955	-0.297389	0.442535	-0.303692	-0.286948	0.481204	-0.304335	-0.433717	0.166841	-0.369872	-0.278386	0.065265	-0.314265	-0.240362	0.075592	-0.390319	-0.212721	0.066097	-0.385003	-0.252715	0.943540	-0.736476	-0.238915	0.884023	-0.743988	-0.175047	0.892685	-0.741881	-0.179901	0.952596	-0.734631	-0.362666	0.458292	-0.738949	-0.375517	0.420262	-0.734356	-0.315878	0.405318	-0.746170	-0.310456	0.448765	-0.749516	-0.458578	0.178165	-0.677693	-0.320653	0.063276	-0.747786	-0.271198	0.068221	-0.677320	-0.243851	0.059520	-0.688948	
254	1.2700	-0.350603	1.704739	-0.515035	-0.298442	1.703598	-0.741968	-0.274223	1.698393	-0.312167	-0.194650	1.668682	-0.528670	-0.168222	1.184105	-0.411635	-0.177023	1.187516	-0.640567	-0.232562	1.267282	-0.362132	-0.235094	1.262039	-0.682246	-0.348703	1.237106	-0.463058	-0.350785	1.239761	-0.572147	-0.356576	1.242341	-0.514455	-0.268993	0.960281	-0.327233	-0.257376	0.903078	-0.316270	-0.193223	0.914624	-0.313073	-0.197780	0.974879	-0.324294	-0.340260	0.495678	-0.301123	-0.355624	0.455564	-0.305050	-0.296818	0.440399	-0.303955	-0.286106	0.479036	-0.304446	-0.435179	0.165882	-0.370438	-0.280707	0.063354	-0.314354	-0.242803	0.072505	-0.390625	-0.215227	0.062734	-0.385282	-0.252161	0.941322	-0.736596	-0.238026	0.881894	-0.744171	-0.174213	0.890890	-0.741746	-0.179409	0.950746	-0.734372	-0.362686	0.456997	-0.738541	-0.375881	0.419114	-0.733846	-0.316402	0.403575	-0.745726	-0.310585	0.446969	-0.749202	-0.461218	0.177566	-0.676543	-0.323664	0.062276	-0.746734	-0.274252	0.066818	-0.676174	-0.246881	0.057989	-0.687759	
255	1.2750	-0.350348	1.702401	-0.514942	-0.298152	1.700566	-0.742038	-0.274134	1.695233	-0.311869	-0.194622	1.665758	-0.528468	-0.168928	1.181436	-0.411593	-0.177671	1.184967	-0.640524	-0.233463	1.264456	-0.361966	-0.235921	1.259265	-0.682370	-0.349378	1.234382	-0.463104	-0.351349	1.237194	-0.572172	-0.357272	1.239684	-0.514489	-0.268990	0.957250	-0.326882	-0.257079	0.900146	-0.315946	-0.192960	0.912002	-0.312960	-0.197858	0.972224	-0.324163	-0.339351	0.493668	-0.301237	-0.354941	0.453577	-0.305113	-0.296201	0.438035	-0.304224	-0.285209	0.476617	-0.304571	-0.436497	0.164719	-0.371035	-0.282951	0.061165	-0.314393	-0.245184	0.069049	-0.390859	-0.217675	0.059001	-0.385488	-0.251721	0.938818	-0.736641	-0.237268	0.879481	-0.744315	-0.173513	0.888779	-0.741575	-0.179023	0.948577	-0.734038	-0.362657	0.455437	-0.738162	-0.376180	0.417699	-0.733376	-0.316853	0.401604	-0.745312	-0.310665	0.444939	-0.748907	-0.463687	0.176704	-0.675466	-0.326540	0.060973	-0.745716	-0.277129	0.065180	-0.675100	-0.249764	0.056197	-0.686631	
256	1.2800	-0.350054	1.699813	-0.514844	-0.297835	1.697284	-0.742105	-0.274024	1.691811	-0.311578	-0.194569	1.662594	-0.528269	-0.169647	1.178505	-0.411559	-0.178360	1.182139	-0.640485	-0.234296	1.261388	-0.361830	-0.236718	1.256266	-0.682483	-0.350058	1.231431	-0.463145	-0.351935	1.234400	-0.572196	-0.357978	1.236806	-0.514518	-0.269016	0.953975	-0.326573	-0.256824	0.897001	-0.315597	-0.192745	0.909140	-0.312865	-0.197969	0.969337	-0.324077	-0.338369	0.491392	-0.301319	-0.354185	0.451330	-0.305137	-0.295536	0.435438	-0.304492	-0.284277	0.473940	-0.304734	-0.437682	0.163364	-0.371669	-0.285121	0.058688	-0.314388	-0.247496	0.065243	-0.391016	-0.220061	0.054891	-0.385611	-0.251384	0.936028	-0.736643	-0.236638	0.876781	-0.744437	-0.172934	0.886361	-0.741408	-0.178739	0.946098	-0.733688	-0.362576	0.453597	-0.737825	-0.376406	0.415993	-0.732952	-0.317223	0.399381	-0.744934	-0.310686	0.442656	-0.748634	-0.465963	0.175549	-0.674465	-0.329252	0.059349	-0.744757	-0.279801	0.063265	-0.674104	-0.252423	0.054145	-0.685595	
257	1.2850	-0.349724	1.696974	-0.514739	-0.297497	1.693758	-0.742171	-0.273887	1.688129	-0.311293	-0.194487	1.659191	-0.528075	-0.170375	1.175317	-0.411527	-0.179084	1.179040	-0.640446	-0.235058	1.258074	-0.361726	-0.237490	1.253039	-0.682577	-0.350745	1.228255	-0.463178	-0.352538	1.231365	-0.572211	-0.358695	1.233685	-0.514544	-0.269085	0.950515	-0.326361	-0.256612	0.893650	-0.315329	-0.192578	0.906058	-0.312779	-0.198107	0.966223	-0.324010	-0.337321	0.488830	-0.301352	-0.353377	0.448839	-0.305139	-0.294826	0.432609	-0.304758	-0.283321	0.471012	-0.304952	-0.438734	0.161807	-0.372314	-0.287228	0.055883	-0.314322	-0.249726	0.061098	-0.391099	-0.222387	0.050445	-0.385642	-0.251149	0.932949	-0.736635	-0.236130	0.873786	-0.744559	-0.172467	0.883631	-0.741274	-0.178552	0.943306	-0.733352	-0.362430	0.451469	-0.737549	-0.376552	0.413979	-0.732582	-0.317508	0.396881	-0.744594	-0.310641	0.440093	-0.748385	-0.468018	0.174077	-0.673555	-0.331763	0.057396	-0.743875	-0.282236	0.061058	-0.673208	-0.254846	0.051785	-0.684658	
258	1.2900	-0.349359	1.693873	-0.514624	-0.297132	1.689988	-0.742237	-0.273719	1.684191	-0.311012	-0.194383	1.655542	-0.527888	-0.171109	1.171888	-0.411496	-0.179844	1.175672	-0.640400	-0.235755	1.254516	-0.361651	-0.238237	1.249590	-0.682653	-0.351442	1.224847	-0.463204	-0.353160	1.228092	-0.572220	-0.359424	1.230328	-0.514563	-0.269175	0.946836	-0.326205	-0.256432	0.890097	-0.315105	-0.192453	0.902769	-0.312655	-0.198273	0.962890	-0.323936	-0.336225	0.485998	-0.301341	-0.352533	0.446103	-0.305128	-0.294096	0.429545	-0.305015	-0.282360	0.467850	-0.305213	-0.439629	0.160031	-0.372995	-0.289253	0.052747	-0.314203	-0.251843	0.056783	-0.391205	-0.224587	0.045941	-0.385681	-0.251020	0.929585	-0.736639	-0.235746	0.870501	-0.744697	-0.172118	0.880594	-0.741204	-0.178468	0.940210	-0.733067	-0.362219	0.449013	-0.737339	-0.376612	0.411632	-0.732284	-0.317691	0.394087	-0.744294	-0.310520	0.437236	-0.748168	-0.469830	0.172257	-0.672752	-0.334042	0.055097	-0.743086	-0.284406	0.058521	-0.672394	-0.257014	0.049091	-0.683828	
